<?xml version="1.0" encoding="UTF-8" standalone="no"?><!-- Generator: Gravit.io --><svg xmlns="http://www.w3.org/2000/svg" xmlns:xlink="http://www.w3.org/1999/xlink" style="isolation:isolate" viewBox="444 213 121.67 142.688" width="121.67pt" height="142.688pt"><defs><clipPath id="_clipPath_0WBjpKLGv5Muh7wqyBHL9jSW5JBFYCOU"><rect x="444" y="213" width="121.67" height="142.688"/></clipPath></defs><g clip-path="url(#_clipPath_0WBjpKLGv5Muh7wqyBHL9jSW5JBFYCOU)"><g><linearGradient id="_lgradient_0" x1="0.00032875811621546625" y1="0.5000431257242091" x2="0.9996712418837841" y2="0.5000431257242091" gradientTransform="matrix(121.67,0,0,142.688,444,213)" gradientUnits="userSpaceOnUse"><stop offset="0%" stop-opacity="1" style="stop-color:rgb(241,86,43)"/><stop offset="30%" stop-opacity="1" style="stop-color:rgb(241,84,43)"/><stop offset="41%" stop-opacity="1" style="stop-color:rgb(240,77,42)"/><stop offset="49%" stop-opacity="1" style="stop-color:rgb(239,66,41)"/><stop offset="50%" stop-opacity="1" style="stop-color:rgb(239,64,41)"/><stop offset="56.00000000000001%" stop-opacity="1" style="stop-color:rgb(232,62,40)"/><stop offset="67%" stop-opacity="1" style="stop-color:rgb(225,60,38)"/><stop offset="100%" stop-opacity="1" style="stop-color:rgb(223,60,38)"/></linearGradient><path d=" M 565.67 259.16 L 561.27 247.21 L 564.33 240.35 C 564.724 239.464 564.533 238.428 563.85 237.74 L 555.53 229.33 C 551.884 225.631 546.433 224.365 541.53 226.08 L 539.2 226.89 L 526.49 213.12 L 504.93 213 L 504.79 213 L 483.09 213.17 L 470.39 227.05 L 468.13 226.25 C 463.195 224.514 457.701 225.793 454.04 229.53 L 445.57 238.1 C 445.026 238.648 444.875 239.475 445.19 240.18 L 448.38 247.3 L 444 259.24 L 446.83 270.01 L 459.74 319.09 C 461.227 324.744 464.649 329.698 469.41 333.09 C 469.41 333.09 485.08 344.14 500.54 354.18 C 503.058 356.19 506.632 356.19 509.15 354.18 C 526.52 342.8 540.26 333.05 540.26 333.05 C 545.017 329.656 548.435 324.702 549.92 319.05 L 562.76 269.95 L 565.67 259.16 Z " fill="url(#_lgradient_0)"/><path d=" M 508.132 305.782 C 507.309 305.414 506.46 305.106 505.592 304.862 L 504.062 304.862 C 503.194 305.106 502.345 305.414 501.522 305.782 L 497.672 307.382 C 496.452 307.892 494.492 308.802 493.322 309.382 L 486.242 313.072 C 485.717 313.242 485.349 313.715 485.311 314.265 C 485.274 314.815 485.575 315.333 486.072 315.572 L 492.222 319.912 C 493.302 320.672 495.002 322.012 496.002 322.912 L 497.732 324.402 C 498.732 325.262 500.362 326.692 501.352 327.572 L 502.992 329.022 C 504.037 329.893 505.556 329.893 506.602 329.022 L 508.322 327.522 L 511.942 324.362 L 513.682 322.842 C 514.682 321.972 516.372 320.632 517.452 319.842 L 523.602 315.442 C 524.1 315.203 524.4 314.683 524.358 314.132 C 524.316 313.582 523.94 313.113 523.412 312.952 L 516.342 309.362 C 515.162 308.762 513.202 307.862 511.972 307.362 L 508.132 305.782 Z " fill="rgb(255,255,255)"/><path d=" M 551.794 262.126 L 551.994 261.486 C 552.006 260.63 551.953 259.774 551.834 258.926 C 551.239 257.411 550.474 255.969 549.554 254.626 L 545.554 248.756 C 544.814 247.656 543.554 245.916 542.704 244.886 L 537.344 238.176 C 536.855 237.522 536.324 236.901 535.754 236.316 L 535.644 236.316 C 535.644 236.316 534.564 236.506 533.264 236.756 L 525.074 238.336 L 521.484 239.026 C 520.292 239.082 519.101 238.909 517.974 238.516 L 511.504 236.426 C 510.244 236.016 508.164 235.426 506.874 235.146 C 505.515 235.002 504.144 235.002 502.784 235.146 C 501.494 235.446 499.414 236.026 498.154 236.436 L 491.684 238.536 C 490.558 238.929 489.366 239.102 488.174 239.046 L 484.584 238.366 L 476.384 236.796 C 475.084 236.546 474.014 236.346 474.004 236.356 L 473.894 236.356 C 473.324 236.941 472.793 237.562 472.304 238.216 L 466.954 244.926 C 466.134 245.926 464.844 247.706 464.104 248.796 L 460.104 254.666 C 459.413 255.678 458.782 256.73 458.214 257.816 C 457.872 259.027 457.69 260.278 457.674 261.536 L 457.874 262.176 C 457.97 262.587 458.094 262.991 458.244 263.386 C 459.074 264.386 460.494 266.046 461.404 267.016 L 475.404 281.896 C 476.351 283.001 476.623 284.533 476.114 285.896 L 473.824 291.326 C 473.303 292.765 473.265 294.334 473.714 295.796 L 474.174 297.056 C 474.926 299.102 476.214 300.909 477.904 302.286 L 480.104 304.076 C 481.266 304.914 482.777 305.095 484.104 304.556 L 491.924 300.826 C 493.36 300.107 494.703 299.218 495.924 298.176 L 502.184 292.526 C 502.688 292.071 502.986 291.432 503.011 290.754 C 503.035 290.075 502.784 289.416 502.314 288.926 L 488.184 279.406 C 487.079 278.621 486.713 277.146 487.324 275.936 L 492.804 265.636 C 493.434 264.363 493.531 262.891 493.074 261.546 C 492.394 260.276 491.295 259.279 489.964 258.726 L 472.784 252.236 C 471.544 251.766 471.614 251.236 472.924 251.156 L 483.014 250.156 C 484.596 250.055 486.185 250.197 487.724 250.576 L 496.504 253.026 C 497.793 253.415 498.597 254.697 498.384 256.026 L 494.934 274.866 C 494.703 275.91 494.646 276.984 494.764 278.046 C 494.904 278.496 496.084 279.046 497.374 279.366 L 502.724 280.506 C 504.278 280.792 505.871 280.792 507.424 280.506 L 512.234 279.416 C 513.524 279.126 514.694 278.516 514.844 278.066 C 514.959 277.003 514.898 275.929 514.664 274.886 L 511.194 256.046 C 510.982 254.717 511.785 253.435 513.074 253.046 L 521.854 250.586 C 523.394 250.207 524.982 250.065 526.564 250.166 L 536.654 251.106 C 537.974 251.226 538.034 251.716 536.804 252.186 L 519.634 258.696 C 518.303 259.249 517.205 260.246 516.524 261.516 C 516.069 262.861 516.166 264.332 516.794 265.606 L 522.284 275.906 C 522.896 277.116 522.53 278.591 521.424 279.376 L 507.304 288.916 C 506.835 289.406 506.583 290.065 506.608 290.744 C 506.632 291.422 506.93 292.061 507.434 292.516 L 513.704 298.166 C 514.926 299.204 516.269 300.091 517.704 300.806 L 525.524 304.526 C 526.853 305.063 528.364 304.877 529.524 304.036 L 531.724 302.236 C 533.416 300.857 534.705 299.046 535.454 296.996 L 535.914 295.736 C 536.364 294.274 536.325 292.705 535.804 291.266 L 533.504 285.836 C 532.996 284.473 533.268 282.941 534.214 281.836 L 548.214 266.936 C 549.124 265.936 550.534 264.336 551.364 263.306 C 551.533 262.923 551.677 262.528 551.794 262.126 Z " fill="rgb(255,255,255)"/></g></g></svg>