<?xml version="1.0" encoding="UTF-8"?>
<svg xmlns="http://www.w3.org/2000/svg" xmlns:xlink="http://www.w3.org/1999/xlink" width="150pt" height="100pt" viewBox="0 0 150 100" version="1.1">
<g id="surface1">
<rect x="0" y="0" width="150" height="100" style="fill:rgb(69.803922%,13.333333%,20.392157%);fill-opacity:1;stroke:none;"/>
<path style="fill-rule:nonzero;fill:rgb(0%,0%,0%);fill-opacity:1;stroke-width:300;stroke-linecap:butt;stroke-linejoin:miter;stroke:rgb(100%,100%,100%);stroke-opacity:1;stroke-miterlimit:4;" d="M 0 450.023438 L 7410 450.023438 M 7410 1049.953125 L 0 1049.953125 M 0 1650.035156 L 7410 1650.035156 M 7410 2249.964844 L 0 2249.964844 M 0 2850.046875 L 7410 2850.046875 M 7410 3449.976562 L 0 3449.976562 " transform="matrix(0.0202429,0,0,0.025641,0,0)"/>
<path style=" stroke:none;fill-rule:nonzero;fill:rgb(23.529412%,23.137255%,43.137255%);fill-opacity:1;" d="M 0 0 L 60 0 L 60 53.847656 L 0 53.847656 Z M 0 0 "/>
<path style=" stroke:none;fill-rule:nonzero;fill:rgb(100%,100%,100%);fill-opacity:1;" d="M 5 2.308594 L 6.429688 7.875 L 2.691406 4.433594 L 7.308594 4.433594 L 3.570312 7.875 Z M 5 2.308594 "/>
<path style=" stroke:none;fill-rule:nonzero;fill:rgb(100%,100%,100%);fill-opacity:1;" d="M 5 13.078125 L 6.429688 18.644531 L 2.691406 15.203125 L 7.308594 15.203125 L 3.570312 18.644531 Z M 5 13.078125 "/>
<path style=" stroke:none;fill-rule:nonzero;fill:rgb(100%,100%,100%);fill-opacity:1;" d="M 5 23.847656 L 6.429688 29.414062 L 2.691406 25.972656 L 7.308594 25.972656 L 3.570312 29.414062 Z M 5 23.847656 "/>
<path style=" stroke:none;fill-rule:nonzero;fill:rgb(100%,100%,100%);fill-opacity:1;" d="M 5 34.617188 L 6.429688 40.179688 L 2.691406 36.742188 L 7.308594 36.742188 L 3.570312 40.179688 Z M 5 34.617188 "/>
<path style=" stroke:none;fill-rule:nonzero;fill:rgb(100%,100%,100%);fill-opacity:1;" d="M 5 45.382812 L 6.429688 50.949219 L 2.691406 47.511719 L 7.308594 47.511719 L 3.570312 50.949219 Z M 5 45.382812 "/>
<path style=" stroke:none;fill-rule:nonzero;fill:rgb(100%,100%,100%);fill-opacity:1;" d="M 10 7.691406 L 11.429688 13.257812 L 7.691406 9.820312 L 12.308594 9.820312 L 8.570312 13.257812 Z M 10 7.691406 "/>
<path style=" stroke:none;fill-rule:nonzero;fill:rgb(100%,100%,100%);fill-opacity:1;" d="M 10 18.460938 L 11.429688 24.027344 L 7.691406 20.585938 L 12.308594 20.585938 L 8.570312 24.027344 Z M 10 18.460938 "/>
<path style=" stroke:none;fill-rule:nonzero;fill:rgb(100%,100%,100%);fill-opacity:1;" d="M 10 29.230469 L 11.429688 34.796875 L 7.691406 31.355469 L 12.308594 31.355469 L 8.570312 34.796875 Z M 10 29.230469 "/>
<path style=" stroke:none;fill-rule:nonzero;fill:rgb(100%,100%,100%);fill-opacity:1;" d="M 10 40 L 11.429688 45.566406 L 7.691406 42.125 L 12.308594 42.125 L 8.570312 45.566406 Z M 10 40 "/>
<path style=" stroke:none;fill-rule:nonzero;fill:rgb(100%,100%,100%);fill-opacity:1;" d="M 15 2.308594 L 16.429688 7.875 L 12.691406 4.433594 L 17.308594 4.433594 L 13.570312 7.875 Z M 15 2.308594 "/>
<path style=" stroke:none;fill-rule:nonzero;fill:rgb(100%,100%,100%);fill-opacity:1;" d="M 15 13.078125 L 16.429688 18.644531 L 12.691406 15.203125 L 17.308594 15.203125 L 13.570312 18.644531 Z M 15 13.078125 "/>
<path style=" stroke:none;fill-rule:nonzero;fill:rgb(100%,100%,100%);fill-opacity:1;" d="M 15 23.847656 L 16.429688 29.414062 L 12.691406 25.972656 L 17.308594 25.972656 L 13.570312 29.414062 Z M 15 23.847656 "/>
<path style=" stroke:none;fill-rule:nonzero;fill:rgb(100%,100%,100%);fill-opacity:1;" d="M 15 34.617188 L 16.429688 40.179688 L 12.691406 36.742188 L 17.308594 36.742188 L 13.570312 40.179688 Z M 15 34.617188 "/>
<path style=" stroke:none;fill-rule:nonzero;fill:rgb(100%,100%,100%);fill-opacity:1;" d="M 15 45.382812 L 16.429688 50.949219 L 12.691406 47.511719 L 17.308594 47.511719 L 13.570312 50.949219 Z M 15 45.382812 "/>
<path style=" stroke:none;fill-rule:nonzero;fill:rgb(100%,100%,100%);fill-opacity:1;" d="M 20 7.691406 L 21.429688 13.257812 L 17.691406 9.820312 L 22.308594 9.820312 L 18.570312 13.257812 Z M 20 7.691406 "/>
<path style=" stroke:none;fill-rule:nonzero;fill:rgb(100%,100%,100%);fill-opacity:1;" d="M 20 18.460938 L 21.429688 24.027344 L 17.691406 20.585938 L 22.308594 20.585938 L 18.570312 24.027344 Z M 20 18.460938 "/>
<path style=" stroke:none;fill-rule:nonzero;fill:rgb(100%,100%,100%);fill-opacity:1;" d="M 20 29.230469 L 21.429688 34.796875 L 17.691406 31.355469 L 22.308594 31.355469 L 18.570312 34.796875 Z M 20 29.230469 "/>
<path style=" stroke:none;fill-rule:nonzero;fill:rgb(100%,100%,100%);fill-opacity:1;" d="M 20 40 L 21.429688 45.566406 L 17.691406 42.125 L 22.308594 42.125 L 18.570312 45.566406 Z M 20 40 "/>
<path style=" stroke:none;fill-rule:nonzero;fill:rgb(100%,100%,100%);fill-opacity:1;" d="M 25 2.308594 L 26.429688 7.875 L 22.691406 4.433594 L 27.308594 4.433594 L 23.570312 7.875 Z M 25 2.308594 "/>
<path style=" stroke:none;fill-rule:nonzero;fill:rgb(100%,100%,100%);fill-opacity:1;" d="M 25 13.078125 L 26.429688 18.644531 L 22.691406 15.203125 L 27.308594 15.203125 L 23.570312 18.644531 Z M 25 13.078125 "/>
<path style=" stroke:none;fill-rule:nonzero;fill:rgb(100%,100%,100%);fill-opacity:1;" d="M 25 23.847656 L 26.429688 29.414062 L 22.691406 25.972656 L 27.308594 25.972656 L 23.570312 29.414062 Z M 25 23.847656 "/>
<path style=" stroke:none;fill-rule:nonzero;fill:rgb(100%,100%,100%);fill-opacity:1;" d="M 25 34.617188 L 26.429688 40.179688 L 22.691406 36.742188 L 27.308594 36.742188 L 23.570312 40.179688 Z M 25 34.617188 "/>
<path style=" stroke:none;fill-rule:nonzero;fill:rgb(100%,100%,100%);fill-opacity:1;" d="M 25 45.382812 L 26.429688 50.949219 L 22.691406 47.511719 L 27.308594 47.511719 L 23.570312 50.949219 Z M 25 45.382812 "/>
<path style=" stroke:none;fill-rule:nonzero;fill:rgb(100%,100%,100%);fill-opacity:1;" d="M 30 7.691406 L 31.429688 13.257812 L 27.691406 9.820312 L 32.308594 9.820312 L 28.570312 13.257812 Z M 30 7.691406 "/>
<path style=" stroke:none;fill-rule:nonzero;fill:rgb(100%,100%,100%);fill-opacity:1;" d="M 30 18.460938 L 31.429688 24.027344 L 27.691406 20.585938 L 32.308594 20.585938 L 28.570312 24.027344 Z M 30 18.460938 "/>
<path style=" stroke:none;fill-rule:nonzero;fill:rgb(100%,100%,100%);fill-opacity:1;" d="M 30 29.230469 L 31.429688 34.796875 L 27.691406 31.355469 L 32.308594 31.355469 L 28.570312 34.796875 Z M 30 29.230469 "/>
<path style=" stroke:none;fill-rule:nonzero;fill:rgb(100%,100%,100%);fill-opacity:1;" d="M 30 40 L 31.429688 45.566406 L 27.691406 42.125 L 32.308594 42.125 L 28.570312 45.566406 Z M 30 40 "/>
<path style=" stroke:none;fill-rule:nonzero;fill:rgb(100%,100%,100%);fill-opacity:1;" d="M 35 2.308594 L 36.429688 7.875 L 32.691406 4.433594 L 37.308594 4.433594 L 33.570312 7.875 Z M 35 2.308594 "/>
<path style=" stroke:none;fill-rule:nonzero;fill:rgb(100%,100%,100%);fill-opacity:1;" d="M 35 13.078125 L 36.429688 18.644531 L 32.691406 15.203125 L 37.308594 15.203125 L 33.570312 18.644531 Z M 35 13.078125 "/>
<path style=" stroke:none;fill-rule:nonzero;fill:rgb(100%,100%,100%);fill-opacity:1;" d="M 35 23.847656 L 36.429688 29.414062 L 32.691406 25.972656 L 37.308594 25.972656 L 33.570312 29.414062 Z M 35 23.847656 "/>
<path style=" stroke:none;fill-rule:nonzero;fill:rgb(100%,100%,100%);fill-opacity:1;" d="M 35 34.617188 L 36.429688 40.179688 L 32.691406 36.742188 L 37.308594 36.742188 L 33.570312 40.179688 Z M 35 34.617188 "/>
<path style=" stroke:none;fill-rule:nonzero;fill:rgb(100%,100%,100%);fill-opacity:1;" d="M 35 45.382812 L 36.429688 50.949219 L 32.691406 47.511719 L 37.308594 47.511719 L 33.570312 50.949219 Z M 35 45.382812 "/>
<path style=" stroke:none;fill-rule:nonzero;fill:rgb(100%,100%,100%);fill-opacity:1;" d="M 40 7.691406 L 41.429688 13.257812 L 37.691406 9.820312 L 42.308594 9.820312 L 38.570312 13.257812 Z M 40 7.691406 "/>
<path style=" stroke:none;fill-rule:nonzero;fill:rgb(100%,100%,100%);fill-opacity:1;" d="M 40 18.460938 L 41.429688 24.027344 L 37.691406 20.585938 L 42.308594 20.585938 L 38.570312 24.027344 Z M 40 18.460938 "/>
<path style=" stroke:none;fill-rule:nonzero;fill:rgb(100%,100%,100%);fill-opacity:1;" d="M 40 29.230469 L 41.429688 34.796875 L 37.691406 31.355469 L 42.308594 31.355469 L 38.570312 34.796875 Z M 40 29.230469 "/>
<path style=" stroke:none;fill-rule:nonzero;fill:rgb(100%,100%,100%);fill-opacity:1;" d="M 40 40 L 41.429688 45.566406 L 37.691406 42.125 L 42.308594 42.125 L 38.570312 45.566406 Z M 40 40 "/>
<path style=" stroke:none;fill-rule:nonzero;fill:rgb(100%,100%,100%);fill-opacity:1;" d="M 45 2.308594 L 46.429688 7.875 L 42.691406 4.433594 L 47.308594 4.433594 L 43.570312 7.875 Z M 45 2.308594 "/>
<path style=" stroke:none;fill-rule:nonzero;fill:rgb(100%,100%,100%);fill-opacity:1;" d="M 45 13.078125 L 46.429688 18.644531 L 42.691406 15.203125 L 47.308594 15.203125 L 43.570312 18.644531 Z M 45 13.078125 "/>
<path style=" stroke:none;fill-rule:nonzero;fill:rgb(100%,100%,100%);fill-opacity:1;" d="M 45 23.847656 L 46.429688 29.414062 L 42.691406 25.972656 L 47.308594 25.972656 L 43.570312 29.414062 Z M 45 23.847656 "/>
<path style=" stroke:none;fill-rule:nonzero;fill:rgb(100%,100%,100%);fill-opacity:1;" d="M 45 34.617188 L 46.429688 40.179688 L 42.691406 36.742188 L 47.308594 36.742188 L 43.570312 40.179688 Z M 45 34.617188 "/>
<path style=" stroke:none;fill-rule:nonzero;fill:rgb(100%,100%,100%);fill-opacity:1;" d="M 45 45.382812 L 46.429688 50.949219 L 42.691406 47.511719 L 47.308594 47.511719 L 43.570312 50.949219 Z M 45 45.382812 "/>
<path style=" stroke:none;fill-rule:nonzero;fill:rgb(100%,100%,100%);fill-opacity:1;" d="M 50 7.691406 L 51.429688 13.257812 L 47.691406 9.820312 L 52.308594 9.820312 L 48.570312 13.257812 Z M 50 7.691406 "/>
<path style=" stroke:none;fill-rule:nonzero;fill:rgb(100%,100%,100%);fill-opacity:1;" d="M 50 18.460938 L 51.429688 24.027344 L 47.691406 20.585938 L 52.308594 20.585938 L 48.570312 24.027344 Z M 50 18.460938 "/>
<path style=" stroke:none;fill-rule:nonzero;fill:rgb(100%,100%,100%);fill-opacity:1;" d="M 50 29.230469 L 51.429688 34.796875 L 47.691406 31.355469 L 52.308594 31.355469 L 48.570312 34.796875 Z M 50 29.230469 "/>
<path style=" stroke:none;fill-rule:nonzero;fill:rgb(100%,100%,100%);fill-opacity:1;" d="M 50 40 L 51.429688 45.566406 L 47.691406 42.125 L 52.308594 42.125 L 48.570312 45.566406 Z M 50 40 "/>
<path style=" stroke:none;fill-rule:nonzero;fill:rgb(100%,100%,100%);fill-opacity:1;" d="M 55 2.308594 L 56.429688 7.875 L 52.691406 4.433594 L 57.308594 4.433594 L 53.570312 7.875 Z M 55 2.308594 "/>
<path style=" stroke:none;fill-rule:nonzero;fill:rgb(100%,100%,100%);fill-opacity:1;" d="M 55 13.078125 L 56.429688 18.644531 L 52.691406 15.203125 L 57.308594 15.203125 L 53.570312 18.644531 Z M 55 13.078125 "/>
<path style=" stroke:none;fill-rule:nonzero;fill:rgb(100%,100%,100%);fill-opacity:1;" d="M 55 23.847656 L 56.429688 29.414062 L 52.691406 25.972656 L 57.308594 25.972656 L 53.570312 29.414062 Z M 55 23.847656 "/>
<path style=" stroke:none;fill-rule:nonzero;fill:rgb(100%,100%,100%);fill-opacity:1;" d="M 55 34.617188 L 56.429688 40.179688 L 52.691406 36.742188 L 57.308594 36.742188 L 53.570312 40.179688 Z M 55 34.617188 "/>
<path style=" stroke:none;fill-rule:nonzero;fill:rgb(100%,100%,100%);fill-opacity:1;" d="M 55 45.382812 L 56.429688 50.949219 L 52.691406 47.511719 L 57.308594 47.511719 L 53.570312 50.949219 Z M 55 45.382812 "/>
</g>
</svg>
